# xmcd CD database file
#
# Track frame offsets:
#	150
#	17137
#	35467
#	57927
#	80775
#	104302
#	124050
#	144052
#	164182
#	187835
#
# Disc length: 2788 seconds
#
# Revision: 0
# Processed by: cddbd v1.4PL0 Copyright (c) Steve Scherf et al.
# Submitted via: Feurio! 1.65 - http://www.feurio.com
#
DISCID=820ae20a
DTITLE=Decatur - Well-Worn Persuasion
DYEAR=2000
DGENRE=Country
TTITLE0=Come Back To You
TTITLE1=Angels n' Devils
TTITLE2=Right As Rain
TTITLE3=Cold
TTITLE4=Down The Line
TTITLE5=Desire
TTITLE6=All These Things
TTITLE7=Go Tell The Lineman
TTITLE8=Misguided Angel
TTITLE9=Hannah Reid
EXTD=
EXTT0=
EXTT1=
EXTT2=
EXTT3=
EXTT4=
EXTT5=
EXTT6=
EXTT7=
EXTT8=
EXTT9=
PLAYORDER=
